<svg version="1.1" id="Layer_1" xmlns="http://www.w3.org/2000/svg" xmlns:xlink="http://www.w3.org/1999/xlink" x="0px" y="0px"
	 width="100%" viewBox="0 0 336 448" enable-background="new 0 0 336 448" xml:space="preserve">
<path fill="#000000" opacity="1.000000" stroke="none" 
	d="
M180.820892,69.000580 
	C181.323471,64.959702 179.994598,62.258507 177.243698,59.822819 
	C173.764175,56.742016 172.162903,52.668480 173.096115,47.560432 
	C174.622330,53.637604 179.756149,57.161880 182.662369,61.971123 
	C188.423019,71.503906 179.890182,85.483612 168.651871,86.281921 
	C166.494141,86.435196 164.297821,86.197044 162.161469,86.469727 
	C156.478928,87.195053 154.268738,90.461121 155.051743,96.022568 
	C157.757797,115.243111 160.348022,134.479965 162.977264,153.711304 
	C163.464371,157.274094 160.825104,160.280243 161.077942,163.997971 
	C170.093475,156.977524 172.153336,147.799362 170.195679,137.247940 
	C168.677261,129.063858 166.803040,120.973236 164.017944,113.112335 
	C163.527542,111.728195 163.077789,110.299553 163.675125,108.467491 
	C165.938873,109.161949 166.121140,111.020622 166.622269,112.603935 
	C167.939178,116.764694 169.761047,120.668343 172.351746,124.199120 
	C177.204178,130.812347 182.412292,131.696915 189.051270,127.022659 
	C189.706726,126.561172 190.367310,126.106964 191.224594,125.510971 
	C190.173431,133.445175 180.512970,134.645813 171.506042,128.081848 
	C170.793839,131.344559 171.922775,134.399872 172.575806,137.180435 
	C175.045670,147.696899 172.723709,156.733307 165.121216,164.202881 
	C161.376709,167.881897 161.357483,171.320389 163.479294,175.752258 
	C167.145142,183.409088 170.221268,191.347351 173.852921,199.021759 
	C177.784012,207.328934 179.313263,216.008316 179.361298,225.134766 
	C179.435822,239.292526 178.260544,253.553284 180.182709,267.580688 
	C182.002914,280.864227 179.658447,293.673218 178.447281,306.694885 
	C176.579758,326.773346 179.997070,346.543701 183.884506,366.077087 
	C187.383270,383.657471 185.649536,400.734589 182.143173,417.906067 
	C181.912659,419.034943 181.494400,420.166199 180.949234,421.181305 
	C179.908920,423.118408 178.640457,425.198090 176.093155,424.772766 
	C173.539993,424.346466 173.088318,421.966431 172.687302,419.798218 
	C171.551331,413.656189 171.587723,407.270782 172.971176,401.433655 
	C175.961548,388.816376 173.923431,376.702026 171.511642,364.448486 
	C168.242401,347.838562 164.991013,331.224365 161.891693,314.582245 
	C160.866928,309.079681 161.681122,303.544952 163.547852,298.347778 
	C166.284500,290.728729 165.380020,283.549164 163.027374,275.959412 
	C156.523666,254.978027 151.254990,233.662292 147.112900,212.071091 
	C144.298859,197.402618 145.673904,184.262848 155.230591,171.522461 
	C160.684616,164.251480 161.027649,154.108673 159.379990,144.378326 
	C156.500229,127.371941 154.375458,110.236496 152.022003,93.143066 
	C151.453278,89.012321 155.484726,84.836006 160.820770,83.912506 
	C162.608566,83.603096 164.473816,83.712631 166.304489,83.684464 
	C176.373352,83.529541 180.303802,79.673508 180.820892,69.000580 
M168.207779,334.649109 
	C169.750671,342.637238 171.298965,350.624298 172.835327,358.613678 
	C175.586151,372.918549 179.058670,387.028412 175.637375,401.923645 
	C174.191116,408.220215 172.656631,415.299347 176.205322,421.815918 
	C178.517197,421.483154 179.002289,419.671906 179.308655,418.159637 
	C181.716003,406.276642 184.593750,394.323456 183.408783,382.158997 
	C182.236313,370.122772 179.805161,358.211304 177.997635,346.234314 
	C175.759781,331.405731 174.713516,316.577209 176.437866,301.552368 
	C177.487686,292.404785 179.374817,283.388702 177.829849,273.859070 
	C175.535843,259.709045 176.498672,245.256149 176.826797,230.956985 
	C177.107956,218.703720 175.384766,207.223343 169.763840,196.218674 
	C165.866226,188.587921 162.780960,180.542236 158.911453,171.721634 
	C153.546936,178.589798 148.997391,184.792358 148.380142,192.961853 
	C147.722885,201.660934 149.252716,210.189377 150.948013,218.661499 
	C154.866257,238.242538 160.169891,257.478088 165.862091,276.601257 
	C167.947479,283.607178 169.069336,290.406342 166.429367,297.553345 
	C164.273834,303.388824 163.497650,309.550201 164.505737,315.742676 
	C165.491150,321.796021 166.832230,327.791473 168.207779,334.649109 
z"/>
</svg>