<svg version="1.1" id="Layer_1" xmlns="http://www.w3.org/2000/svg" xmlns:xlink="http://www.w3.org/1999/xlink" x="0px" y="0px"
	 width="100%" viewBox="0 0 608 608" enable-background="new 0 0 608 608" xml:space="preserve">
<path fill="#000000" opacity="1.000000" stroke="none" 
	d="
M237.409042,443.619263 
	C198.373428,450.635010 165.567886,440.349335 142.079132,408.321777 
	C125.995911,386.391846 123.293243,361.748657 136.033096,336.676208 
	C137.893631,333.014587 140.751602,329.859741 143.376587,326.147217 
	C136.784042,319.339905 134.802063,310.407928 133.212021,301.378143 
	C130.750046,287.396606 122.354645,276.919006 113.156898,266.904205 
	C105.721512,258.808258 97.726967,251.208725 91.174835,242.330750 
	C73.328316,218.149170 78.093781,187.743317 102.342216,172.034866 
	C114.639023,164.068832 128.495392,163.623413 142.415955,165.184052 
	C165.923050,167.819458 187.272568,177.459412 208.628830,186.753433 
	C249.147507,204.386688 286.940155,226.746384 321.853363,253.843842 
	C343.589844,270.714325 364.888123,288.117432 381.099091,310.776489 
	C381.456573,311.276154 382.018646,311.629456 382.757263,312.296753 
	C384.995026,308.097687 385.093262,303.721893 385.592316,299.540100 
	C388.670288,273.747711 384.186951,248.826279 376.357452,224.374130 
	C369.448669,202.797455 360.170227,182.418808 345.132416,165.102432 
	C336.499115,155.160995 326.514862,147.009720 314.254425,141.891449 
	C311.776550,140.857040 309.234253,140.185669 306.508911,140.153076 
	C301.689209,140.095474 298.659607,142.300949 297.299652,146.932297 
	C296.491516,149.684372 296.291931,152.470428 296.280151,155.320236 
	C296.189270,177.318863 296.102356,199.317871 295.854919,221.314987 
	C295.826508,223.843018 297.046692,228.259308 293.154663,228.163162 
	C289.154297,228.064331 290.832550,223.677567 290.827820,221.181046 
	C290.784027,198.020844 290.794464,174.860733 291.628662,151.707108 
	C292.122406,138.002747 300.971466,131.713608 313.912659,136.474060 
	C331.766693,143.041687 345.289276,155.236649 355.925903,170.588669 
	C376.100037,199.706390 386.490753,232.400101 390.447449,267.388855 
	C392.300415,283.774811 391.347321,299.932861 387.685516,315.956116 
	C387.085297,318.582611 387.520203,320.809479 388.663300,323.155090 
	C390.775543,327.489349 392.690094,331.919983 394.817444,336.597321 
	C397.572571,334.392761 398.771881,331.069580 400.731934,328.355896 
	C406.605896,320.223389 413.879883,314.711945 424.431610,314.907684 
	C426.603729,314.947968 428.195129,313.739227 429.802063,312.538513 
	C460.522186,289.584015 492.247314,268.121216 525.287292,248.644485 
	C533.156433,244.005692 541.004272,239.190918 549.916992,236.614288 
	C552.194702,235.955826 554.536865,234.988373 556.264648,237.446777 
	C558.104980,240.065353 557.217529,242.560196 555.314453,244.732361 
	C549.688232,251.153992 542.283569,255.072067 534.775940,258.662842 
	C528.174011,261.820435 521.309509,264.442200 514.496887,267.138794 
	C512.275818,268.017975 509.844025,269.364166 507.662262,266.708893 
	C506.604950,265.422180 505.544678,266.562103 504.609589,267.149414 
	C479.927612,282.652039 456.003082,299.246063 432.181824,317.107788 
	C437.218903,322.164551 439.256958,327.993347 438.487396,334.874146 
	C437.814056,340.894836 435.487976,346.069824 431.728394,350.698914 
	C431.203979,351.344604 430.646790,351.969421 430.056000,352.554688 
	C423.668427,358.882507 415.095520,360.134644 409.269623,355.603302 
	C403.910828,351.435303 402.585480,341.527466 406.411072,334.505035 
	C407.936401,331.705017 409.683655,329.062866 412.054993,326.925476 
	C414.231537,324.963623 415.970428,322.547150 418.536926,320.984406 
	C412.138123,322.248993 408.307617,326.891205 404.683685,331.571136 
	C402.043701,334.980408 399.980560,338.837158 397.672821,342.502380 
	C397.044525,343.500214 396.489594,344.561890 396.766449,345.787415 
	C401.406128,366.324310 392.963379,383.179779 380.779419,398.312256 
	C363.799164,419.401764 342.748016,434.983978 315.938660,441.682007 
	C309.896881,443.191498 303.731567,443.952728 297.611969,443.161530 
	C289.400818,442.099915 281.847961,439.337158 284.767944,426.717560 
	C269.302490,433.346710 254.334122,440.641418 237.409042,443.619263 
M188.747849,183.819901 
	C183.623306,181.836288 178.553391,179.694992 173.364182,177.898178 
	C156.766968,172.151215 140.064102,167.761581 122.094185,170.184464 
	C93.020340,174.104477 76.587120,205.179977 90.242935,231.134201 
	C96.556839,243.134384 106.169388,252.448563 115.499008,261.938354 
	C127.964508,274.617859 136.999420,288.935699 139.500381,306.935394 
	C140.135117,311.503632 141.739349,315.949341 144.805023,319.720123 
	C146.654755,321.995239 148.224792,322.968567 151.027802,321.031433 
	C153.470215,319.343445 156.249710,318.075104 159.006454,316.923340 
	C165.983063,314.008636 173.197556,312.076324 180.861618,312.755096 
	C183.970413,313.030396 186.944519,314.043121 188.023315,317.278076 
	C189.179123,320.743958 187.514938,323.477051 184.629944,325.386566 
	C182.697830,326.665405 180.689102,327.931183 178.545151,328.769012 
	C170.376694,331.961212 161.904526,332.363007 153.540710,330.026001 
	C149.647156,328.938080 147.233734,329.853455 144.893524,332.753479 
	C133.319275,347.096497 131.230942,363.464661 134.994629,380.846375 
	C142.468460,415.362579 176.713440,438.737030 209.711319,440.713776 
	C244.183151,442.778809 273.586029,427.634094 302.307709,411.787201 
	C317.987213,403.136200 331.620209,391.008484 344.483032,378.306000 
	C359.487946,363.488159 371.565216,346.780090 379.309021,327.021637 
	C381.162079,322.293518 380.735321,318.502716 377.697845,314.507721 
	C371.233093,306.005096 364.564484,297.680969 356.796753,290.338806 
	C307.891846,244.113373 251.828979,209.140945 188.747849,183.819901 
M303.904114,417.418640 
	C299.527496,420.695221 294.248047,422.835632 290.906403,427.408844 
	C287.661957,431.849060 288.733337,435.242828 293.819366,437.127533 
	C297.960358,438.661957 302.206268,439.021851 306.592743,438.423309 
	C321.947205,436.328003 335.708069,430.287537 348.294281,421.471710 
	C367.043762,408.338898 382.938446,392.758636 390.666962,370.468018 
	C392.798431,364.320435 393.654144,357.992554 392.483673,351.461731 
	C390.769623,351.639099 390.351501,352.854797 389.651398,353.710541 
	C383.735352,360.941437 377.365295,367.721252 370.402496,373.973999 
	C350.647247,391.714600 328.155273,405.243805 303.904114,417.418640 
M432.615479,326.172760 
	C431.023926,323.972198 429.497223,320.009644 426.427246,321.912537 
	C419.254272,326.358612 412.041077,331.325073 409.574280,340.114990 
	C408.314667,344.603363 408.978333,349.224243 413.270416,352.174530 
	C417.742645,355.248566 421.716461,352.864105 424.990082,349.982147 
	C431.919800,343.881348 435.505066,336.393921 432.615479,326.172760 
M361.007629,375.496002 
	C371.189941,366.856567 380.683075,357.560730 388.548187,346.701599 
	C389.732666,345.066223 391.174164,343.470276 390.600067,341.309204 
	C389.344147,336.581696 387.837067,331.933502 384.472870,327.307648 
	C380.967407,335.960419 377.488220,343.821686 372.900970,351.177887 
	C368.389435,358.412781 363.382599,365.249023 357.710327,371.563049 
	C352.080261,377.830017 346.091034,383.774384 340.259308,389.860229 
	C347.801086,386.223358 354.064636,380.997742 361.007629,375.496002 
M176.452469,317.345337 
	C167.246704,318.358948 158.188583,321.800964 155.363525,325.438446 
	C165.560989,327.742218 174.994049,326.987762 183.420456,319.990845 
	C181.623062,317.260712 179.407379,317.399689 176.452469,317.345337 
M521.861938,256.363739 
	C519.054260,258.673645 515.822388,260.315643 512.722839,262.192596 
	C525.999146,257.196381 539.382202,252.424805 549.893982,242.321686 
	C540.024292,245.446594 531.456848,251.116547 521.861938,256.363739 
z"/>
</svg>