<svg version="1.1" id="Layer_1" xmlns="http://www.w3.org/2000/svg" xmlns:xlink="http://www.w3.org/1999/xlink" x="0px" y="0px"
	 width="100%" viewBox="0 0 462 675" enable-background="new 0 0 462 675" xml:space="preserve">
<path fill="none" opacity="1.000000" stroke="#000000" stroke-linecap="round" stroke-linejoin="round" stroke-width="3.000000"
	d="
M170.500000,186.500000 
	C166.484558,191.077057 164.445908,196.803467 161.526550,202.014877 
	C159.579376,205.490784 157.882690,208.940765 154.561493,211.577454 
	C145.794876,218.537186 141.268936,228.020050 140.049515,239.005493 
	C139.047058,248.036270 133.239655,254.777466 129.479797,262.490143 
	C122.865097,276.059082 116.883644,289.842804 112.934990,304.482452 
	C110.415764,313.822510 106.778168,322.746521 102.693253,331.589264 
	C97.517181,342.794037 93.469429,354.507294 91.866165,366.982788 
	C90.927536,374.286591 90.968597,381.292664 92.399506,388.519897 
	C94.376404,398.504852 104.399658,408.893188 114.506622,409.935760 
	C123.741486,410.888397 132.937393,412.078583 141.986588,414.061188 
	C154.400314,416.780884 164.931564,422.769714 169.812027,435.074554 
	C172.609436,442.127563 172.645981,449.789032 170.663177,457.541748 
	C168.722565,465.129608 165.692047,472.227020 163.067261,479.524200 
	C159.626633,489.089478 156.010818,498.674744 155.525711,509.001221 
	C155.247192,514.929565 156.717453,520.672913 159.131516,525.939697 
	C161.233475,530.525635 169.918320,532.076050 175.975662,529.443970 
	C178.106979,528.517883 180.262726,527.980713 182.488602,527.452026 
	C185.309433,526.781982 187.937668,526.321289 189.999344,529.000488 
	C191.835709,531.386963 191.196014,533.972595 190.481186,536.494690 
	C189.199188,541.017700 186.896896,545.035461 182.462967,546.912537 
	C177.748978,548.908203 172.788101,550.568542 167.501846,549.983337 
	C155.708115,548.677490 146.344788,543.188782 141.129150,532.437378 
	C136.828415,523.571899 136.129303,513.713806 137.093475,504.009277 
	C138.536453,489.485352 143.382126,475.758484 147.961884,461.987335 
	C150.988113,452.887604 152.991562,443.812225 148.086426,434.454681 
	C144.044647,426.744232 137.274689,422.548187 129.967606,419.068024 
	C117.028824,412.905579 102.903130,412.387482 88.997543,412.135437 
	C63.006084,411.664337 36.999985,411.988129 11.000028,412.021637 
	C8.833151,412.024445 6.666667,412.333344 4.500000,412.500000 
"/>
<path fill="none" opacity="1.000000" stroke="#000000" stroke-linecap="round" stroke-linejoin="round" stroke-width="3.000000"
	d="
M263.500000,389.500000 
	C263.542450,383.146881 263.606689,376.783020 262.464355,370.506500 
	C261.991882,367.910400 263.473816,365.756531 263.232086,362.979797 
	C261.935242,348.084137 256.774567,334.610443 250.071793,321.463409 
	C245.279556,312.063721 244.847626,301.578186 246.254700,291.535675 
	C247.726883,281.028564 249.710129,270.419067 253.925110,260.468262 
	C254.158997,259.916107 254.379028,258.899078 253.546204,257.959045 
	C243.469543,246.585373 240.430328,233.628677 244.985947,218.995621 
	C246.821121,213.100876 246.085510,206.986954 245.842377,201.006409 
	C245.718933,197.969772 245.772659,195.000000 245.990448,191.659607 
	C253.124237,194.752380 258.251129,199.858780 262.613251,206.413162 
	C269.200470,202.650620 276.451111,203.103424 283.487671,203.656693 
	C289.081696,204.096558 291.471954,201.216675 293.511475,197.005569 
	C295.433075,193.038040 297.158691,188.952011 300.047577,185.442169 
	C301.956207,185.564270 302.125702,187.081390 302.511047,188.496994 
	C304.253204,194.896042 305.797150,201.429611 305.822693,208.000687 
	C305.844757,213.674210 307.895264,218.749222 309.216980,223.944794 
	C311.279327,232.051514 310.993500,239.723557 308.485901,247.495453 
	C307.673065,250.014709 307.956268,252.061325 309.971558,254.029114 
	C318.019836,261.887756 322.961029,271.719635 326.903442,282.036896 
	C328.336456,285.787170 330.563324,288.082428 333.956696,290.073792 
	C352.786102,301.123474 361.877502,318.102814 364.160767,339.482819 
	C364.787567,345.351898 365.342804,351.203644 364.895599,356.991943 
	C363.499023,375.068115 360.858459,392.886597 350.519440,408.512878 
	C350.034424,409.245850 349.833344,410.166656 349.500000,411.000000 
"/>
<path fill="none" opacity="1.000000" stroke="#000000" stroke-linecap="round" stroke-linejoin="round" stroke-width="3.000000"
	d="
M460.500000,412.500000 
	C457.500000,412.333344 454.498688,412.001556 451.500214,412.025360 
	C419.000549,412.283173 386.500763,411.639404 353.996765,412.352386 
	C343.459808,412.583527 333.033356,413.950684 322.501343,414.096863 
	C311.476624,414.249878 300.873474,413.134308 290.449219,409.132294 
	C282.548340,406.099091 274.999084,402.225098 266.981873,399.554413 
	C260.066101,397.250610 253.998947,400.443329 253.988785,408.000000 
	C253.985580,410.378632 255.031967,412.218384 256.480560,414.015656 
	C265.251556,424.897827 276.904358,430.054504 290.482819,432.113251 
	C298.832520,433.379211 306.908203,433.294403 315.001740,431.006104 
	C322.939728,428.761719 330.441803,425.562714 336.964996,420.455292 
	C339.776642,418.253876 343.752441,417.586517 345.500000,414.000000 
"/>
<path fill="none" opacity="1.000000" stroke="#000000" stroke-linecap="round" stroke-linejoin="round" stroke-width="3.000000"
	d="
M182.000000,273.500000 
	C184.921585,285.323517 184.965591,297.463959 186.233459,309.475372 
	C186.795731,314.802216 188.166916,320.205994 192.810516,324.695953 
	C199.842712,331.495483 202.338165,341.067017 203.882996,350.519135 
	C204.826141,356.289703 205.956512,362.046265 206.142639,367.995544 
	C206.404022,376.349182 205.131958,384.470612 203.357391,392.468353 
	C201.851944,399.253204 198.941864,406.850769 193.273514,410.105560 
	C184.124603,415.358978 173.630386,419.114807 162.517181,415.447906 
	C157.729691,413.868256 152.939758,412.048859 149.216476,408.236206 
	C153.290131,404.842377 177.047012,407.089661 186.500000,411.500000 
"/>
<path fill="none" opacity="1.000000" stroke="#000000" stroke-linecap="round" stroke-linejoin="round" stroke-width="3.000000"
	d="
M262.000000,368.500000 
	C258.931000,365.661194 259.016479,361.526306 258.133240,357.966949 
	C255.479889,347.274048 251.495163,337.240112 245.511093,327.992828 
	C244.774872,326.855164 244.579391,325.340179 242.458130,326.417542 
	C240.906448,327.205688 241.074554,328.267487 240.991745,329.499451 
	C240.701111,333.824127 241.776871,338.236145 243.235870,341.906219 
	C248.642670,355.506958 251.636490,369.472504 250.843826,383.991486 
	C250.371231,392.647736 249.100388,401.351318 245.579498,409.534210 
	C244.432220,412.200562 243.193787,412.145935 240.502716,412.185272 
	C226.336594,412.392578 212.122101,410.759613 197.999573,412.997314 
	C196.079880,413.301483 195.039993,411.576660 193.500000,411.000000 
"/>
<path fill="none" opacity="1.000000" stroke="#000000" stroke-linecap="round" stroke-linejoin="round" stroke-width="3.000000"
	d="
M170.500000,188.000000 
	C173.424316,193.163879 174.513519,199.037170 176.226929,204.584351 
	C177.349670,208.219284 179.380676,210.521362 182.069504,211.860428 
	C188.534775,215.080124 194.316650,218.990967 199.006760,224.494232 
	C200.226379,225.925278 201.578583,226.052521 203.522293,225.594620 
	C208.747787,224.363617 214.105240,223.872253 219.500259,223.987549 
	C221.327103,224.026596 223.158859,223.914902 224.958237,226.041824 
	C219.509872,231.490173 214.327255,237.386932 208.343170,242.309341 
	C205.910309,244.310593 204.717773,246.503540 203.509872,249.004776 
	C199.445282,257.421570 195.297821,265.752747 187.006424,271.010132 
	C182.994293,273.554108 180.924622,273.141174 177.476425,269.522461 
	C169.574829,261.230072 159.599411,256.349030 149.027573,252.425690 
	C147.479935,251.851318 146.576721,252.203690 145.499741,252.998184 
	C148.541840,267.069397 168.265167,274.629364 178.500000,272.000000 
"/>
</svg>