<svg version="1.1" id="Layer_1" xmlns="http://www.w3.org/2000/svg" xmlns:xlink="http://www.w3.org/1999/xlink" x="0px" y="0px"
	 width="100%" viewBox="0 0 1000 1000" enable-background="new 0 0 1000 1000" xml:space="preserve">
<path fill="none" opacity="1.000000" stroke="#000000" stroke-linecap="round" stroke-linejoin="round" stroke-width="5.000000"
	d="
M368.000000,327.500000 
	C372.879913,331.899323 377.087189,332.210968 381.499969,328.499969 
	C386.415619,324.366150 387.403992,317.843079 384.000031,311.999969 
	C379.446960,304.184357 367.769958,301.563049 359.500000,306.500000 
	C349.669434,312.368683 343.631195,326.681519 346.000000,338.500000 
	C348.291199,349.931213 359.590515,359.956207 370.981049,362.100677 
	C398.608002,367.301849 421.194061,349.827850 428.001587,325.000427 
	C435.341400,298.231628 428.904785,275.137482 408.941528,256.061218 
	C396.117401,243.806915 380.493195,236.941879 363.015411,233.911057 
	C355.194336,232.554810 347.377258,231.479431 339.505951,232.078140 
	C325.651337,233.131943 312.247253,236.274094 299.494019,241.986633 
	C276.677826,252.206650 258.403473,267.820251 244.540451,288.527069 
	C235.079300,302.658936 228.909454,318.115997 225.855270,334.973785 
	C223.860184,345.985779 223.141739,357.062408 224.187500,367.982056 
	C227.206879,399.509369 238.640671,427.669556 259.979614,451.518219 
	C279.642059,473.493134 304.432068,487.367462 331.469360,498.077332 
	C357.839447,508.522949 385.250000,515.751831 411.998962,525.003052 
	C425.441681,529.652222 438.520599,535.207642 451.483368,541.036987 
	C453.105103,541.766235 454.500000,543.000000 456.000000,544.000000 
"/>
<path fill="none" opacity="1.000000" stroke="#000000" stroke-linecap="round" stroke-linejoin="round" stroke-width="5.000000"
	d="
M458.000000,544.250000 
	C474.428467,553.335632 490.417969,563.116577 504.981354,575.022827 
	C527.053650,593.068115 544.993835,614.541321 557.989929,640.005127 
	C565.511658,654.742920 570.706726,670.327698 573.935730,686.512817 
	C576.566833,699.700745 577.112915,713.227417 575.800354,726.480225 
	C572.625549,758.535461 560.069458,786.632507 536.953369,809.452759 
	C523.047485,823.180481 506.692291,832.997009 487.492828,837.469238 
	C463.868591,842.972229 441.654083,840.537659 422.004272,824.994568 
	C408.725891,814.491394 399.411224,800.921692 393.117401,785.452209 
	C386.966095,770.333252 383.869171,754.491272 383.874512,737.999939 
	C383.877808,727.800537 383.755768,717.600891 385.087524,707.511536 
	C386.942352,693.459412 389.984955,679.616150 393.991608,665.997559 
	C400.904968,642.499207 409.591095,619.720398 420.975983,597.987427 
	C431.127930,578.608215 443.121887,560.655579 457.268127,543.805359 
	C475.082184,522.586304 495.386322,504.783203 518.976929,490.462006 
	C532.062256,482.518188 546.041382,476.630127 561.028931,474.176605 
	C582.314514,470.692078 602.328674,473.813171 617.950073,490.546600 
	C626.313843,499.505798 630.749512,510.498322 633.053284,522.489746 
	C634.869019,531.941406 635.623047,541.475891 634.877441,550.990417 
	C634.090454,561.033203 632.921204,571.122437 630.869263,580.972778 
	C627.342041,597.904602 623.031372,614.674194 618.988770,631.497253 
	C616.382019,642.344971 612.938049,653.052185 611.211975,664.033325 
	C609.597778,674.302490 607.643799,684.543335 606.760986,694.979797 
	C606.024597,703.684753 606.355042,712.334106 606.001526,721.000061 
	C605.797546,725.999756 608.731445,731.000000 606.000000,736.000000 
	C610.019165,745.350403 611.063110,755.558044 614.822937,765.070007 
	C620.880981,780.396179 629.610657,794.200562 637.483704,808.508972 
	C639.556091,812.275391 641.573792,816.048767 642.039795,820.495850 
	C642.850647,828.232849 637.812378,834.310242 628.005920,833.433716 
	C617.555420,832.499695 609.432312,827.190613 602.980225,819.015625 
	C593.083191,806.475769 589.648621,792.038208 591.115723,776.510925 
	C592.316895,763.797852 597.110657,751.997253 602.549561,740.523499 
	C603.184631,739.183838 604.499939,738.166626 605.499939,736.999939 
"/>
<path fill="none" opacity="1.000000" stroke="#000000" stroke-linecap="round" stroke-linejoin="round" stroke-width="5.000000"
	d="
M494.999969,205.499985 
	C494.333313,206.499985 493.057190,207.523026 493.094025,208.496429 
	C493.474060,218.548920 491.318359,228.840790 495.966766,238.515961 
	C497.998199,242.744171 500.403076,246.180542 505.489838,247.058914 
	C509.240967,247.706619 510.827393,246.821503 510.982971,242.999313 
	C511.238007,236.733444 508.804688,231.044403 506.388336,225.549103 
	C503.239227,218.387268 501.362640,210.419464 495.022766,204.973495 
	C494.679718,204.678802 494.513611,203.997147 494.522888,203.500427 
	C494.671021,195.559860 487.644714,192.048874 483.860992,186.596466 
	C481.574432,183.301483 479.929016,186.318741 479.026794,188.511032 
	C474.672272,199.091797 471.430878,209.854172 470.857025,221.492950 
	C470.213135,234.552246 472.179108,246.666946 478.904663,258.056305 
	C481.860840,263.062469 485.287445,267.635437 489.063782,271.944092 
	C491.851746,275.125092 492.104187,278.560791 492.083740,282.500427 
	C492.032593,292.350616 490.710083,302.121124 490.903717,312.001892 
	C491.290100,331.717529 498.471161,348.542419 511.525574,362.976868 
	C528.811523,382.090179 550.629639,394.171417 574.494751,403.014130 
	C589.216919,408.469208 604.008972,413.668793 618.047119,420.908600 
	C642.110107,433.318451 658.395325,452.277100 669.197021,476.913605 
	C675.025269,490.206573 678.529785,503.938690 680.871765,518.021301 
	C682.873169,530.056213 682.835754,542.402588 681.813904,554.484253 
	C679.608215,580.563660 672.270813,605.427795 662.052734,629.522400 
	C648.808533,660.752869 631.560974,689.821350 614.423218,718.954834 
	C612.523438,722.184387 611.967163,726.659607 607.500000,728.000000 
"/>
<path fill="none" opacity="1.000000" stroke="#000000" stroke-linecap="round" stroke-linejoin="round" stroke-width="5.000000"
	d="
M645.000000,366.000000 
	C636.003174,356.623230 632.066650,345.276276 633.118713,332.509796 
	C633.892517,323.119904 636.963196,314.404449 643.975891,307.475616 
	C652.576355,298.978027 660.447754,290.026367 666.152161,279.079285 
	C673.351868,265.262573 673.320374,251.598801 667.964050,237.513672 
	C666.535217,233.756561 664.671143,230.164627 662.999084,226.500427 
	C659.394165,218.600784 654.332642,216.739197 647.044861,221.075394 
	C644.080750,222.839035 641.361816,225.272659 637.981140,225.897888 
	C633.021606,226.815186 628.808899,224.921478 624.949341,221.558105 
	C617.831238,215.355057 610.627747,209.489304 601.046387,206.832718 
	C589.620483,203.664703 578.468567,202.672134 566.993530,205.977570 
	C553.250000,209.936462 543.957886,203.385849 535.917053,193.064621 
	C530.337402,185.902588 526.064758,177.947556 521.184692,170.380875 
	C518.834351,166.736572 516.023132,163.866486 513.032288,160.441422 
	C507.246887,164.469940 504.497986,170.157715 502.013306,176.005661 
	C499.470581,181.990265 497.250793,188.115189 496.114563,194.520325 
	C495.817078,196.197464 493.993073,196.448410 494.000000,198.000000 
"/>
</svg>