<svg version="1.1" id="Layer_1" xmlns="http://www.w3.org/2000/svg" xmlns:xlink="http://www.w3.org/1999/xlink" x="0px" y="0px"
	 width="100%" viewBox="0 0 672 1024" enable-background="new 0 0 672 1024" xml:space="preserve">
<path fill="#000000" opacity="1.000000" stroke="none" 
	d="
M470.206177,483.199921 
	C468.249573,496.956696 471.972809,508.619080 480.435455,518.952454 
	C495.221100,537.006531 496.923615,537.882080 521.070312,538.710022 
	C527.401917,538.927063 533.730286,539.181274 539.921082,540.643555 
	C549.632935,542.937683 554.567627,549.015076 555.350647,558.984924 
	C556.357666,571.805725 552.474365,583.716064 548.637756,595.593323 
	C541.722168,617.002441 530.993958,636.531616 518.619446,655.222595 
	C498.263275,685.969604 473.202576,712.537903 445.729980,736.899963 
	C433.187531,748.022278 418.414398,753.960083 401.387848,753.266357 
	C387.754333,752.710876 374.168915,751.840454 360.669312,749.491516 
	C341.768555,746.202881 325.586761,737.856567 312.435211,724.077271 
	C284.503143,694.811829 260.956848,662.574646 245.517090,624.790222 
	C237.078735,604.139832 228.804062,583.390076 218.587585,563.507629 
	C217.828873,562.031006 217.215393,560.469360 216.650513,558.905273 
	C213.023834,548.863586 214.820114,541.114929 221.784363,536.594238 
	C229.724976,531.439758 240.666229,532.429443 247.670303,539.107910 
	C253.924988,545.071838 256.883392,552.896240 259.269989,560.920654 
	C264.082977,577.103333 266.112366,593.815552 268.114471,610.497314 
	C270.972961,634.314880 274.226318,658.025818 282.358246,680.760254 
	C282.744873,681.841064 283.195099,682.969604 283.893127,683.857910 
	C294.595947,697.478760 305.245941,711.118774 317.609406,723.355957 
	C331.908783,737.509216 349.395508,744.292908 368.918579,746.628296 
	C377.671844,747.675293 386.480316,748.270630 395.269592,749.000366 
	C397.210480,749.161499 399.176147,749.023987 402.632050,749.023987 
	C385.090942,736.363098 383.675781,718.573303 382.759125,700.576111 
	C382.403381,693.590698 381.920807,686.611694 381.521667,679.628357 
	C381.308990,675.907043 379.852814,674.044128 375.652374,674.129517 
	C371.194611,674.220215 366.692657,673.539246 362.253601,672.894897 
	C347.044556,670.687195 336.475189,662.077515 329.296936,648.798401 
	C327.325348,645.151062 325.846436,641.220825 323.048157,638.023438 
	C321.209869,635.922852 321.883484,633.646667 323.209900,631.549072 
	C325.131256,628.510620 327.841644,626.317505 331.033600,624.743591 
	C347.079926,616.831055 363.632446,611.991638 381.651245,616.854736 
	C384.695587,617.676331 387.384064,617.444214 390.340210,616.274048 
	C399.762543,612.544189 409.489990,611.948975 419.247559,614.787598 
	C429.518402,617.775513 439.259796,622.185059 448.627655,627.259583 
	C456.130188,631.323608 457.100830,636.190125 452.574585,643.397766 
	C449.204803,648.763855 445.286652,653.737976 441.163727,658.558167 
	C427.900299,674.064941 410.274994,676.151428 391.517181,674.802673 
	C389.876923,674.684814 388.244141,674.062988 386.345062,674.940613 
	C385.285767,677.689331 386.111786,680.689758 386.260345,683.575134 
	C386.910065,696.196411 386.656036,708.913452 389.334656,721.353333 
	C390.937103,728.795288 394.029510,735.598816 399.591003,741.013794 
	C406.299500,747.545898 413.872314,749.610657 422.899078,745.943054 
	C435.394531,740.866089 445.277252,732.224609 454.844360,723.149536 
	C474.104218,704.880188 492.285828,685.558716 507.379272,663.690369 
	C514.817688,652.913086 521.111145,641.224121 526.854553,629.427673 
	C534.798218,613.112122 532.178589,596.616028 525.103882,580.637634 
	C516.547546,561.312805 502.277985,546.420105 487.104828,532.220276 
	C477.391785,523.130371 468.804108,513.157715 466.333588,499.464996 
	C464.933594,491.705475 465.441742,483.913727 467.304047,475.499054 
	C457.633942,478.740295 450.821655,473.944916 444.041779,468.968048 
	C431.435089,459.713989 420.411194,448.901855 411.944855,435.700470 
	C407.003021,427.994720 403.578308,419.770294 405.571228,410.217255 
	C407.102783,402.875641 410.914185,397.406281 417.882629,394.313141 
	C419.555786,393.570465 421.262512,392.856598 422.820435,391.909943 
	C427.501709,389.065430 427.766022,386.829895 423.690613,383.120361 
	C414.394684,374.658966 406.188660,365.289673 399.505157,354.625031 
	C396.312683,349.530945 393.362701,344.282135 391.735291,338.461487 
	C387.955322,324.941833 392.098267,316.651672 405.447601,312.621490 
	C415.161682,309.688782 424.029541,305.573944 432.071472,299.357758 
	C443.309113,290.671387 454.853699,291.472595 466.329895,299.122620 
	C468.266663,300.413635 470.222961,301.675446 472.178070,302.938629 
	C472.303284,303.019501 472.496490,302.995178 472.792053,303.040222 
	C474.198212,301.738770 474.177338,299.794708 474.579193,298.101776 
	C475.432495,294.507019 476.704590,291.093628 478.371490,287.817719 
	C484.464691,275.842865 495.329193,270.818237 508.297333,274.503479 
	C519.667114,277.734467 530.822571,281.683380 542.845886,281.937866 
	C551.541565,282.121918 560.151794,281.408691 568.742920,280.255249 
	C585.547668,277.999054 595.322571,284.317780 598.179749,300.923584 
	C600.311890,313.315979 604.354248,324.581055 611.070129,335.178345 
	C616.686462,344.040710 619.726807,353.661285 614.818359,364.071320 
	C613.896545,366.026489 615.120422,367.198120 616.119690,368.512939 
	C623.277039,377.930267 624.317810,388.227234 620.625610,399.252869 
	C618.605957,405.283752 615.821167,410.968689 612.862244,416.561096 
	C609.045227,423.775238 606.758728,431.290619 607.264771,439.545929 
	C607.577820,444.652832 606.315125,449.492706 604.143982,454.059540 
	C600.122314,462.518677 592.130127,465.863892 583.380310,462.526825 
	C579.513794,461.052124 575.746582,459.142914 572.230164,456.955322 
	C559.570801,449.079773 545.810181,445.360687 530.965149,445.277893 
	C526.285889,445.251801 521.677368,444.442871 517.196472,443.123352 
	C509.165833,440.758514 503.328674,436.010681 501.048676,427.623444 
	C500.648041,426.149628 500.210114,424.828369 498.729462,423.979645 
	C475.112427,410.442657 468.262421,387.162201 475.849487,360.984802 
	C480.506165,344.917847 487.477112,330.101807 501.001190,319.329132 
	C506.434906,315.000854 512.745972,312.459625 519.376343,310.793945 
	C518.593567,305.104706 516.593201,303.275360 511.399200,303.306915 
	C506.672241,303.335602 502.620544,305.375061 499.010712,308.086365 
	C489.689209,315.087677 480.578461,322.368896 471.290039,329.415100 
	C465.221527,334.018707 462.999329,339.945251 465.766998,346.973206 
	C470.490967,358.968872 469.378693,370.749115 465.772552,382.681244 
	C463.741119,389.402893 462.619965,396.285248 463.150757,403.379639 
	C463.985138,414.532166 471.600952,421.536285 482.808044,420.617218 
	C487.452637,420.236298 488.204803,421.416412 488.200684,425.978699 
	C488.169220,460.888855 527.492920,488.479156 559.317871,470.664551 
	C564.400879,467.819275 569.571777,465.077881 575.419617,464.025360 
	C582.948730,462.670197 586.219055,464.360687 589.592896,471.072815 
	C591.626160,475.117950 593.223206,479.295776 594.169006,483.710297 
	C596.735474,495.690125 590.678345,505.601105 578.969849,509.216858 
	C569.245239,512.219910 559.735291,510.381439 550.413391,507.949982 
	C538.019287,504.717194 525.998291,504.216156 513.541260,508.042389 
	C502.438110,511.452759 492.823273,507.109406 485.884552,497.179535 
	C480.233124,489.091919 477.925232,479.647430 475.025818,470.443512 
	C474.787109,469.685730 474.640076,468.899048 474.110474,466.739197 
	C472.605682,472.984619 471.426849,477.877136 470.206177,483.199921 
M618.609497,390.083832 
	C618.917725,374.824310 609.731812,363.078674 595.004639,359.686829 
	C592.009949,358.997101 590.262756,359.561676 589.548889,362.781982 
	C586.885803,374.794159 580.238831,384.681580 572.896240,394.272980 
	C567.979126,400.696106 563.587219,407.522369 553.739563,401.596802 
	C555.225403,413.948608 548.845581,422.600983 537.065369,425.213776 
	C528.349121,427.147034 519.468018,425.781952 510.683380,426.383881 
	C508.971008,426.501221 506.981598,425.612213 505.503754,427.611206 
	C506.421509,431.701874 508.901154,434.593933 512.516846,436.718201 
	C516.787292,439.227234 521.489075,440.627502 526.298218,440.668121 
	C545.771118,440.832520 563.746399,445.660583 579.966187,456.664459 
	C581.711060,457.848206 583.891235,458.493408 585.956848,459.082031 
	C592.438843,460.929108 597.950195,458.267151 600.668762,452.120972 
	C602.454102,448.084534 603.015015,443.796295 603.021240,439.446442 
	C603.034851,429.903870 605.610229,421.081055 610.087646,412.717072 
	C613.785217,405.809814 617.123291,398.742981 618.609497,390.083832 
M587.317932,340.402283 
	C589.040283,343.877106 589.991699,347.563843 590.278259,351.419769 
	C590.393860,352.975159 590.524597,354.536652 592.390686,354.930878 
	C598.891357,356.304291 604.945557,358.837585 610.728516,362.638947 
	C611.357971,361.232391 611.772156,360.527039 611.999084,359.765869 
	C614.424438,351.631378 612.194824,344.242218 607.931396,337.402740 
	C601.089844,326.427490 595.183289,315.173401 594.289856,301.915283 
	C594.158447,299.965210 593.346436,298.038330 592.706360,296.149170 
	C590.062439,288.346802 584.994751,284.485596 576.747498,284.197540 
	C573.598755,284.087555 570.379395,284.097748 567.286011,284.614563 
	C548.518494,287.749939 530.180725,286.483704 512.246033,279.902069 
	C509.144012,278.763702 505.877869,277.777130 502.612518,277.433533 
	C491.846466,276.300659 483.266296,283.429199 479.392914,295.989166 
	C476.908905,304.043915 477.012604,312.472412 474.962524,321.233765 
	C478.549530,318.512177 481.605927,316.228363 484.624298,313.895355 
	C490.284424,309.520538 495.687286,304.783966 502.043762,301.386810 
	C507.351013,298.550385 513.797058,296.857605 517.957031,301.216095 
	C523.001648,306.501495 528.177002,306.721527 534.303223,305.906525 
	C534.945862,305.821045 535.640686,305.947357 536.286072,306.089691 
	C557.516174,310.772217 574.341736,322.107422 587.317932,340.402283 
M508.093750,319.527344 
	C503.218170,322.236633 499.074097,325.882904 495.679749,330.223694 
	C485.617432,343.091736 479.314972,357.715057 477.451324,373.909607 
	C475.212616,393.363190 482.331421,408.761414 499.098816,419.390350 
	C502.448151,421.513550 506.142303,422.810150 509.974426,422.392944 
	C516.468750,421.685852 522.946899,422.081390 529.429077,421.933899 
	C533.648499,421.837891 537.718262,421.170074 541.464844,419.132782 
	C550.166199,414.401215 552.284058,406.560791 547.153870,398.131378 
	C544.958740,394.524597 541.907227,391.691620 538.748169,388.969238 
	C531.296936,382.548126 524.379333,375.574097 517.640503,368.427826 
	C512.347900,362.815155 507.946625,356.591919 505.393280,349.196106 
	C501.248413,337.190552 504.500671,328.107910 515.373718,321.501923 
	C518.214111,319.776184 521.044373,318.033783 524.693542,315.800751 
	C517.997131,314.565094 513.369812,316.863159 508.093750,319.527344 
M559.412720,475.006470 
	C552.988953,478.876343 545.996399,481.067047 538.530090,480.854797 
	C515.223328,480.192230 494.492493,464.678772 486.803619,442.531342 
	C485.012207,437.371368 484.057800,432.018433 483.318512,426.703217 
	C475.710052,427.134430 471.253693,431.517883 472.314789,438.807526 
	C474.955933,456.951843 479.104797,474.856689 487.188110,491.399628 
	C493.011505,503.317444 501.667694,506.582184 514.527832,503.643402 
	C515.986938,503.309967 517.463806,503.013611 518.881165,502.544922 
	C525.871765,500.233124 532.968262,500.229706 540.096008,501.618195 
	C547.769409,503.112946 555.367126,505.060791 563.084351,506.249054 
	C572.182495,507.649933 581.070312,506.507782 587.221008,498.884247 
	C593.485962,491.119049 590.416687,482.828644 586.864746,474.859314 
	C586.526550,474.100464 586.083435,473.388763 585.736633,472.633270 
	C583.690186,468.175140 580.491699,466.729095 575.593323,467.922760 
	C569.985840,469.289185 565.106812,472.097260 559.412720,475.006470 
M580.326782,375.831665 
	C582.383850,372.181946 584.027344,368.328278 584.925476,364.259003 
	C587.332581,353.352600 586.908386,342.740784 578.363708,334.473572 
	C568.368958,324.803406 556.996033,316.904572 543.832642,312.051483 
	C538.296143,310.010284 532.464050,309.340088 526.194031,311.231781 
	C528.013855,313.054688 529.869995,313.268036 531.586487,313.791626 
	C532.874390,314.184448 534.348511,314.504028 534.326721,316.199768 
	C534.304199,317.953430 532.799683,318.117035 531.476501,318.373260 
	C525.596863,319.511810 520.639954,322.622253 515.902649,326.015076 
	C508.543854,331.285278 506.528717,337.370148 508.809967,346.125122 
	C509.744781,349.712891 511.307983,353.037415 513.349060,356.083496 
	C521.962402,368.937897 533.831665,378.626526 545.208984,389.301483 
	C549.019165,381.758331 555.308960,376.758240 559.213257,369.876160 
	C561.733032,365.434692 559.922485,364.046173 556.395874,362.646240 
	C553.432617,366.430359 549.788513,367.706848 544.831299,366.858795 
	C533.920532,364.992249 524.994690,355.737823 522.274719,343.471680 
	C519.532227,331.103882 525.513306,325.083740 537.794800,327.605042 
	C541.141968,328.292175 542.714661,330.235107 543.207581,333.240997 
	C543.696655,336.223083 541.788574,337.667419 539.296082,338.843872 
	C534.785889,340.972717 534.028564,343.719055 536.510681,348.055603 
	C538.891602,352.215240 542.630920,354.485809 547.159851,355.707947 
	C551.009094,356.746704 555.056519,357.015106 558.729248,358.741241 
	C565.054565,361.714020 566.714966,367.460327 562.588074,373.058014 
	C559.627197,377.074158 556.319031,380.834259 553.166443,384.709076 
	C549.107422,389.697968 549.573792,392.816467 555.048889,397.303619 
	C559.363892,400.839996 562.646423,400.468079 566.533997,395.701172 
	C571.483887,389.631714 576.147827,383.344818 580.326782,375.831665 
M471.925476,426.725952 
	C472.556671,425.817474 473.931244,425.445068 473.884033,423.656097 
	C467.411133,421.368439 462.836792,416.826630 460.071075,410.400299 
	C459.323273,408.662781 457.884460,407.172546 456.089996,406.846161 
	C452.932465,406.271851 450.760895,404.227722 448.375580,402.483459 
	C442.638794,398.288544 436.961395,394.012390 430.887390,389.491669 
	C428.898773,393.902435 425.143463,395.599121 421.309631,397.333527 
	C411.495422,401.773499 407.356934,410.569031 409.900604,421.052032 
	C410.811737,424.806854 412.253082,428.322174 414.243866,431.626465 
	C423.356842,446.752075 435.982513,458.432800 450.386230,468.334442 
	C452.282898,469.638367 454.448120,470.687134 456.636200,471.405579 
	C462.532562,473.341583 466.274994,472.105164 469.182770,466.837555 
	C470.217438,464.963226 472.097046,464.934845 473.264984,463.739655 
	C471.534149,456.499573 469.724518,449.411224 468.169159,442.267548 
	C466.985382,436.830750 467.636871,431.658783 471.925476,426.725952 
M432.790070,337.127014 
	C438.837250,333.735626 445.610291,332.554291 452.180878,330.755402 
	C457.339569,329.343109 462.432312,327.737030 466.685608,324.325623 
	C473.955841,318.494476 473.707245,309.130890 466.188660,303.895386 
	C464.822754,302.944244 463.433441,302.021545 462.011963,301.156311 
	C454.312073,296.469543 446.177582,295.137695 438.472992,300.378571 
	C427.532898,307.820404 416.350494,314.310760 403.388000,317.802460 
	C396.314331,319.707916 393.512146,325.422058 395.039154,332.737671 
	C398.760071,350.564240 409.991119,363.721710 423.226410,377.200806 
	C415.608612,358.460114 418.373169,347.285065 432.790070,337.127014 
M266.732605,632.579529 
	C265.384491,622.022766 264.174103,611.446167 262.654419,600.914185 
	C260.610992,586.752319 258.714783,572.533752 254.226624,558.873352 
	C252.034363,552.200989 249.190521,545.774536 243.591278,541.091614 
	C238.078445,536.481018 230.010834,536.109497 224.018799,540.119080 
	C219.213272,543.334717 217.976395,548.825317 220.403900,556.311829 
	C220.865494,557.735413 221.306412,559.187439 221.969589,560.520569 
	C235.845688,588.414978 246.355804,617.822266 260.256622,645.702332 
	C264.362366,653.936829 268.596558,662.112671 274.154633,669.528503 
	C270.604492,657.689941 268.760529,645.562683 266.732605,632.579529 
M434.709473,382.783752 
	C442.196198,389.473419 449.699646,396.142120 458.560791,402.617523 
	C458.594025,394.724213 459.971130,388.050659 461.942261,381.590057 
	C465.248688,370.753265 465.713440,360.123871 462.051971,349.275604 
	C460.125763,343.568665 459.968842,337.652191 462.936615,331.716461 
	C454.081146,334.431366 445.679565,336.553680 437.624115,339.593292 
	C427.896423,343.263947 422.960388,351.502167 423.173035,361.827515 
	C423.352783,370.556519 428.339142,376.651093 434.709473,382.783752 
M545.182434,592.725342 
	C548.204224,583.893860 550.505737,574.829834 551.335510,565.574402 
	C552.486938,552.732422 547.725342,545.050842 535.807861,543.846497 
	C527.386475,542.995544 518.912598,542.631104 510.454651,542.195862 
	C508.290680,542.084534 506.023743,541.275330 503.363678,542.277344 
	C522.410889,563.620483 538.048218,585.947144 535.558655,616.222717 
	C539.424072,608.726013 542.472778,601.219971 545.182434,592.725342 
M430.296600,662.835449 
	C437.290161,657.215210 443.032898,650.536621 447.571014,643.349182 
	C432.587585,643.349182 417.809113,643.398987 403.031250,643.323303 
	C397.552246,643.295227 393.383301,645.670471 390.292542,649.936218 
	C386.522614,655.139282 386.020599,661.360413 385.386963,667.489136 
	C385.206726,669.232239 385.924103,670.447388 387.844269,670.502441 
	C402.292267,670.917175 416.934906,672.432678 430.296600,662.835449 
M331.934113,641.488953 
	C329.965240,642.501099 331.233002,643.742737 331.790283,644.796509 
	C341.731567,663.593201 353.830109,669.944458 377.270172,669.902771 
	C379.099121,669.899475 380.607330,669.416138 380.848694,667.275635 
	C381.794006,658.892029 382.824158,650.539307 390.133087,643.437683 
	C369.871613,643.220886 351.345673,640.424744 331.934113,641.488953 
M416.992676,618.410461 
	C409.534454,616.763794 402.137604,616.846008 394.791107,619.094543 
	C386.599213,621.601807 384.973175,627.811768 390.933441,634.109802 
	C393.337616,636.650269 396.318542,638.020203 399.851807,637.914124 
	C414.664581,637.469666 429.476898,637.005981 444.287964,636.507690 
	C446.516205,636.432739 448.737000,636.136841 452.520111,635.807434 
	C441.669861,626.382202 429.559662,622.828247 416.992676,618.410461 
M337.534546,626.034363 
	C335.058563,627.380005 332.499023,628.595825 330.135590,630.116455 
	C328.524994,631.152710 326.330414,632.315125 326.920410,634.648865 
	C327.528320,637.053223 329.953094,636.866455 331.930237,636.939575 
	C349.350098,637.583740 366.770325,638.220032 384.192291,638.802673 
	C385.590363,638.849426 387.141876,639.391113 388.727112,637.975952 
	C386.451691,635.333740 384.450836,632.502686 383.825897,628.999023 
	C382.436493,621.209473 382.446991,621.190491 374.590240,619.757324 
	C373.127533,619.490479 371.627319,619.428711 370.144318,619.273438 
	C358.832092,618.088928 348.553894,622.023438 337.534546,626.034363 
M535.235046,353.190369 
	C528.694275,344.899902 529.211731,341.301544 538.163513,333.662231 
	C536.326172,330.130920 533.032593,331.074371 530.354553,331.584839 
	C527.383240,332.151184 526.461182,334.867065 526.172424,337.682800 
	C525.172180,347.436584 532.980286,359.082977 542.421143,362.046295 
	C545.474548,363.004730 548.412109,362.921814 551.456360,361.894104 
	C545.580688,360.194580 539.964783,358.311340 535.235046,353.190369 
z"/>
<path fill="#000000" opacity="1.000000" stroke="none" 
	d="
M160.671021,386.368591 
	C144.927795,374.600403 134.744385,359.809174 131.717285,340.393921 
	C130.714264,333.960907 128.703186,327.688263 124.198540,322.675110 
	C119.812271,317.793640 114.136047,318.747711 111.455620,324.721741 
	C110.792679,326.199280 110.651009,328.478821 108.347649,327.506165 
	C106.473969,326.714966 106.129364,324.678467 106.819801,322.754028 
	C109.747192,314.594604 114.531563,308.107422 122.792389,304.543976 
	C132.476929,300.366394 142.389542,300.598633 152.135086,303.524506 
	C181.069626,312.211517 202.402130,330.277008 216.179565,357.105957 
	C218.222595,361.084351 219.639847,362.818817 224.631790,361.037170 
	C232.428162,358.254639 240.844620,359.484314 248.944580,359.917633 
	C266.928680,360.879608 284.716003,363.502899 302.019440,368.686737 
	C315.712189,372.788849 328.456024,378.761414 339.202728,388.483459 
	C351.864319,399.937836 358.076569,414.777405 359.887299,431.175873 
	C362.814301,457.683319 363.836487,484.301147 359.308441,510.810791 
	C358.917511,513.099731 358.388275,515.364990 357.937927,517.569519 
	C359.084106,518.958069 360.549530,518.215881 361.777740,518.445740 
	C369.467682,519.884705 372.985992,525.918518 370.215515,533.304932 
	C368.072083,539.019653 363.943756,543.486755 360.454285,548.345886 
	C357.250458,552.807251 353.694122,557.032837 351.615631,562.213684 
	C350.181854,565.787415 349.733795,569.276184 352.440521,572.930420 
	C356.356537,571.483826 360.397949,570.179688 364.781372,571.560913 
	C368.221832,572.645020 371.237213,574.225769 373.503174,577.062256 
	C377.872162,582.531250 384.105499,584.300964 390.776245,581.911560 
	C394.435699,580.600708 397.622192,578.522522 400.509766,575.934814 
	C403.388916,573.354614 406.537567,571.130981 410.310822,570.109131 
	C417.168945,568.251892 420.955780,571.659180 419.677643,578.398499 
	C429.001770,576.963867 432.304657,568.799316 426.311462,561.178833 
	C423.454651,557.546326 419.644562,554.677795 416.420197,551.315613 
	C413.833862,548.618713 409.927612,545.708069 413.333954,541.623962 
	C416.548920,537.769226 420.377502,540.398254 423.649902,542.418213 
	C428.393250,545.346191 432.486664,548.982361 434.968018,554.115417 
	C441.714020,568.070312 433.714966,581.723145 417.895172,583.237000 
	C416.075439,583.411133 414.232574,583.377869 412.400360,583.381531 
	C405.257355,583.395691 398.180908,581.829163 391.217041,585.973328 
	C386.723267,588.647583 381.038116,587.414246 376.215485,585.196045 
	C372.588287,583.527832 368.990784,583.033691 365.076508,583.312622 
	C360.242737,583.657104 355.437775,583.281921 350.729309,581.901550 
	C338.025238,578.177185 332.583954,568.474365 336.214569,555.744873 
	C337.920227,549.764526 340.979767,544.367432 344.045898,539.036926 
	C353.249939,523.035645 357.223785,505.651672 357.614288,487.420532 
	C357.967407,470.935059 358.111267,454.425537 356.672455,437.969055 
	C354.632568,414.637329 345.774597,395.293396 324.728119,382.844849 
	C319.078644,379.503265 312.972931,379.477661 306.935089,378.802216 
	C281.462280,375.952759 256.109161,375.976410 230.990036,382.123810 
	C226.524002,383.216797 224.365265,384.839355 226.151749,389.550842 
	C226.265030,389.849548 226.194366,390.213654 226.239670,390.543152 
	C227.441406,399.285156 227.326706,407.991089 234.518295,415.278809 
	C244.249298,425.139893 255.443069,430.762909 268.936737,432.764221 
	C286.544922,435.375824 304.112427,435.109711 321.715973,432.940643 
	C323.690796,432.697296 325.708099,432.745636 327.705322,432.754364 
	C329.283997,432.761261 330.762604,433.186676 331.222809,434.937927 
	C331.720337,436.831207 330.763885,438.167816 329.188202,439.074860 
	C326.662140,440.528900 323.751495,441.147369 321.006592,441.027893 
	C306.209747,440.383728 293.441956,446.548737 280.632904,452.632507 
	C268.451447,458.418152 256.585907,464.970886 243.520874,468.652161 
	C233.872101,471.370880 224.097519,472.942657 213.957458,471.405792 
	C201.647186,469.539948 191.535370,464.003876 184.063263,454.098938 
	C180.177628,448.948151 176.035538,443.991241 172.977295,438.167694 
	C168.763229,430.143188 162.310440,428.664459 154.687668,433.471252 
	C151.460388,435.506409 148.315186,437.789459 145.528259,440.384644 
	C133.984238,451.134430 120.007019,456.369659 104.764580,458.907074 
	C97.169418,460.171387 89.877075,457.892456 82.458504,457.076080 
	C77.002632,456.475708 71.547249,455.860779 66.081573,455.362762 
	C61.863056,454.978394 60.587154,452.810791 62.669701,449.050598 
	C63.551342,447.458679 64.613556,445.910339 65.850548,444.581238 
	C71.797859,438.191315 76.239487,430.793365 80.786812,423.397583 
	C90.209366,408.072693 102.851479,396.295654 120.138245,390.271118 
	C142.121887,382.609650 162.627960,391.105927 172.006073,412.292572 
	C176.699783,422.896393 180.627213,433.888428 183.343475,445.234955 
	C183.458618,445.716034 183.544769,446.246735 183.810623,446.642761 
	C190.197021,456.156006 198.156967,463.555969 210.373978,466.377747 
	C206.612976,454.370850 209.553040,442.817230 210.010788,431.305725 
	C210.371033,422.246643 215.668076,416.306915 225.053970,414.012817 
	C202.480957,407.039429 179.942535,400.938568 160.671021,386.368591 
M178.819580,352.604156 
	C171.106201,335.087738 158.755630,322.135651 140.955200,314.808167 
	C133.941788,311.921112 126.670776,310.746368 118.711113,315.330994 
	C125.246689,316.251495 128.217209,320.354218 130.764267,324.954956 
	C133.621185,330.115326 135.152603,335.732117 136.278625,341.450470 
	C138.537674,352.922607 142.671005,363.383087 150.900833,372.064636 
	C168.612473,390.748413 191.308105,399.764557 216.204102,406.565735 
	C194.432724,386.195190 191.017761,381.260681 178.819580,352.604156 
M118.092842,451.598938 
	C126.889954,448.713074 134.888687,444.528381 141.681091,438.054840 
	C145.640793,434.281036 149.829147,430.661438 154.919067,428.368958 
	C160.461975,425.872375 165.832672,425.767487 170.963531,429.514130 
	C171.593414,429.974060 172.122482,431.290375 173.437653,430.295074 
	C171.084351,425.282928 167.336411,421.613678 162.830490,418.632111 
	C144.350204,406.403687 118.194168,409.432526 103.067230,425.508820 
	C94.747078,434.351166 88.424248,445.136902 76.548470,451.499847 
	C90.879807,455.431488 104.087212,456.382782 118.092842,451.598938 
M208.660736,351.838715 
	C195.301193,330.872437 177.143097,315.924988 153.383331,308.188812 
	C144.271759,305.222137 135.000916,303.850128 124.335449,308.625244 
	C138.514236,307.270386 148.896576,312.842987 158.638351,320.082886 
	C170.764603,329.094879 178.787918,341.159027 184.385696,355.006500 
	C191.730881,373.176636 201.624466,389.558167 217.447693,401.723450 
	C219.180450,403.055634 220.665924,404.978882 223.433533,405.093170 
	C221.389282,386.539490 219.396561,368.366547 208.660736,351.838715 
M160.373306,402.133270 
	C147.723495,389.838623 133.102615,389.460541 117.822388,395.719574 
	C103.498138,401.587006 92.866943,412.000000 84.717491,424.997314 
	C80.127464,432.317780 76.095726,440.013092 69.861092,446.180023 
	C69.300117,446.734894 68.757950,447.474365 69.648491,448.534912 
	C76.521423,447.510559 81.666008,443.396393 86.169037,438.437958 
	C91.420860,432.655060 96.371788,426.600067 101.510254,420.712830 
	C108.196114,413.052704 116.918037,409.200317 126.775566,407.943329 
	C142.237671,405.971619 156.927185,407.728027 170.194199,418.925507 
	C167.700989,412.294006 164.895035,407.121857 160.373306,402.133270 
M278.415771,441.350525 
	C271.023376,441.135712 263.914154,439.659668 257.124420,436.673431 
	C250.664536,433.832214 249.100494,434.089172 244.222656,439.402802 
	C236.367371,447.959808 230.317749,457.881561 223.150391,467.175232 
	C235.412430,468.846252 278.587921,453.037354 293.891449,441.170441 
	C290.917542,442.085724 288.615448,442.096497 286.302002,441.898285 
	C283.983368,441.699677 281.660583,441.549255 278.415771,441.350525 
M225.409683,418.928223 
	C218.564987,420.532013 214.818024,424.436127 214.205856,431.141754 
	C213.479507,439.098053 212.858978,447.072479 212.532532,455.052979 
	C212.384323,458.676361 212.385849,463.534729 215.890121,464.870453 
	C219.430405,466.219849 221.819748,461.953796 223.853516,459.245819 
	C231.007233,449.720612 237.001602,439.289459 246.461487,431.275391 
	C241.749695,427.524872 237.219788,424.163147 232.994858,420.453979 
	C230.856445,418.576569 228.787003,417.984222 225.409683,418.928223 
M304.968292,373.928528 
	C287.798615,368.427856 270.160065,365.331299 252.199890,364.396790 
	C243.276642,363.932495 234.253616,363.123932 225.368103,365.205200 
	C223.125977,365.730377 220.806625,366.580109 221.650513,369.394196 
	C222.630814,372.663239 222.914520,376.233734 225.098526,379.397339 
	C251.460968,372.105621 278.166199,371.395935 304.968292,373.928528 
M353.644806,550.201294 
	C357.125458,545.532043 360.650452,540.894836 364.066986,536.179077 
	C365.638947,534.009399 366.822632,531.639893 366.817688,528.823486 
	C366.811798,525.442993 364.915314,523.485413 361.899567,522.784546 
	C358.855286,522.077026 356.206299,523.047241 355.057373,526.226624 
	C352.547180,533.173096 348.418976,539.259766 344.924927,545.681946 
	C342.608521,549.939636 340.575714,554.294067 339.614807,559.079529 
	C337.951538,567.362732 340.962250,573.153198 348.941956,576.335022 
	C343.570648,566.483093 347.885437,558.539307 353.644806,550.201294 
M432.404419,558.984253 
	C429.370483,550.951660 423.181152,545.207153 416.848389,545.260864 
	C421.637451,552.315918 429.806396,555.865112 433.351624,563.492432 
	C433.100342,562.218445 432.849060,560.944397 432.404419,558.984253 
M414.319641,574.876221 
	C410.580139,571.933594 408.925659,575.861511 406.470245,577.188904 
	C409.191742,577.213074 411.960602,577.514465 414.319641,574.876221 
z"/>
</svg>