<svg version="1.1" id="Layer_1" xmlns="http://www.w3.org/2000/svg" xmlns:xlink="http://www.w3.org/1999/xlink" x="0px" y="0px"
	 width="100%" viewBox="0 0 600 900" enable-background="new 0 0 600 900" xml:space="preserve">
<path fill="none" opacity="1.000000" stroke="#000000" stroke-linecap="round" stroke-linejoin="round" stroke-width="6.000000"
	d="
M512.500000,361.000000 
	C516.174500,350.836151 520.885071,341.127808 523.706055,330.554962 
	C527.850037,315.023560 529.199097,299.494202 528.676819,283.494232 
	C528.276611,271.234222 527.139221,259.074982 525.342957,247.023407 
	C523.365173,233.754059 520.829224,220.488831 517.353516,207.539307 
	C511.278046,184.903732 503.582123,162.790100 492.510101,141.994629 
	C479.137909,116.878929 462.373505,94.641808 438.481842,78.526909 
	C424.525940,69.113655 409.036682,63.066788 392.477325,60.655758 
	C374.914612,58.098648 357.409149,59.385002 339.959351,63.319695 
	C328.142761,65.984177 316.974457,69.627426 307.015533,76.522423 
	C295.769867,84.308289 289.207703,95.133614 286.463379,108.492477 
	C283.717224,121.860100 284.742920,135.090775 286.278748,148.525299 
	C287.399841,158.332031 288.630096,168.154892 289.654236,177.983932 
	C290.820312,189.175339 291.454956,200.318985 290.453918,211.495880 
	C288.849091,229.413956 280.787842,243.848221 265.434967,253.395401 
	C253.113312,261.057587 239.105682,264.498474 225.012970,267.559723 
	C207.710037,271.318329 190.059006,273.695923 173.487289,280.468903 
	C159.239548,286.292023 148.688232,295.502136 145.044556,311.010468 
	C142.076767,323.642029 142.380890,335.951721 152.070831,345.931213 
	C158.949265,353.015228 168.016113,356.406311 177.506912,358.468170 
	C187.904724,360.727142 198.432541,362.199371 208.985001,363.612061 
	C218.441238,364.877991 227.944992,366.399170 236.750504,370.498932 
	C245.968445,374.790710 250.964371,381.044830 249.719330,392.996796 
	C247.716644,412.221893 235.934128,424.672333 220.500504,434.500793 
	C216.465698,437.070312 212.421249,439.621277 208.000000,441.500000 
"/>
<path fill="none" opacity="1.000000" stroke="#000000" stroke-linecap="round" stroke-linejoin="round" stroke-width="6.000000"
	d="
M490.000000,389.000000 
	C503.248383,398.807648 510.817841,412.246460 514.451233,428.011230 
	C517.563660,441.515778 517.252563,455.244568 516.573425,469.003632 
	C516.154236,477.496246 516.404419,485.999512 515.601501,494.509583 
	C514.513062,506.046783 513.211792,517.531006 511.687378,529.024841 
	C509.602142,544.747620 506.343262,560.161316 502.508057,575.502014 
	C496.796570,598.347900 489.020874,620.467896 479.518585,642.008179 
	C468.664642,666.612671 455.125305,689.654175 439.497009,711.497864 
	C417.764374,741.873657 393.737946,770.125061 363.479523,792.472290 
	C344.653351,806.376404 323.773651,816.219482 300.962585,821.333069 
	C289.561951,823.888733 277.754944,825.383911 266.007874,824.405457 
	C244.721954,822.632446 226.253494,815.451355 214.463455,796.022156 
	C200.417847,772.876038 207.686844,744.997009 233.520798,733.546936 
	C242.374329,729.622864 251.804871,728.216797 261.480743,727.297241 
	C271.349640,726.359375 281.165192,726.722168 291.001221,726.595764 
	C292.854919,726.571960 294.370422,725.828979 295.969604,725.389404 
	C298.879395,724.589783 299.503662,721.286194 297.488007,718.508667 
	C291.929626,710.849670 283.506104,707.845581 274.964386,705.637756 
	C267.828217,703.793152 260.367645,703.295227 253.011963,702.401550 
	C241.317780,700.980530 229.951477,698.322083 220.480484,690.523682 
	C214.600052,685.681702 211.060486,679.898132 211.469666,671.998413 
	C211.881012,664.056946 220.884323,656.607483 228.458176,658.654724 
	C230.871948,659.307129 233.156754,659.539307 235.498489,659.456970 
	C244.660736,659.135193 253.578720,661.177979 262.447418,662.789368 
	C266.168915,663.465576 269.989258,662.356506 273.500000,664.000000 
"/>
<path fill="none" opacity="1.000000" stroke="#000000" stroke-linecap="round" stroke-linejoin="round" stroke-width="6.000000"
	d="
M208.500000,442.000000 
	C218.988464,466.515686 208.377167,491.215332 189.034988,504.052704 
	C174.012619,514.023071 157.174973,519.093506 140.004028,523.515686 
	C119.567329,528.778870 98.572319,531.779114 78.519257,538.557007 
	C73.225067,540.346375 67.852493,542.294678 63.054340,545.093201 
	C42.223671,557.242737 39.054668,584.057800 55.532291,602.471130 
	C60.612705,608.148315 66.278854,613.238159 73.000000,617.000000 
"/>
<path fill="none" opacity="1.000000" stroke="#000000" stroke-linecap="round" stroke-linejoin="round" stroke-width="6.000000"
	d="
M226.500000,658.000000 
	C227.841629,654.239319 231.317566,653.549133 234.503784,652.511597 
	C245.945984,648.786072 257.333954,649.125732 268.475677,653.561096 
	C273.314758,655.487366 277.834778,654.782898 281.949890,652.412964 
	C288.463562,648.661743 295.298920,648.757019 301.960510,650.639709 
	C309.890930,652.880981 317.661926,655.480652 325.999298,655.770142 
	C335.738861,656.108276 345.144592,655.473694 353.595062,649.637634 
	C355.215607,648.518494 356.727325,647.324707 357.927002,645.936890 
	C359.830811,643.734558 358.370941,639.806519 355.494476,639.566162 
	C340.505951,638.313965 328.342255,630.383301 316.037231,622.938477 
	C305.524017,616.577759 295.264160,616.623352 285.036133,623.057434 
	C281.265381,625.429565 277.622101,627.738281 273.000000,627.750000 
"/>
<path fill="none" opacity="1.000000" stroke="#000000" stroke-linecap="round" stroke-linejoin="round" stroke-width="6.000000"
	d="
M499.000000,317.000000 
	C499.700592,315.246613 499.674866,313.805847 498.576996,311.954346 
	C489.741577,297.054413 479.070160,283.841675 465.043427,273.441437 
	C460.736267,270.247803 455.732056,269.844452 450.993744,269.673859 
	C439.769257,269.269745 428.636078,270.928680 417.479828,272.340668 
	C406.743195,273.699524 396.100464,275.405029 385.499207,277.496033 
	C366.692200,281.205597 348.243439,286.151672 330.519012,293.545532 
	C328.755829,294.281067 327.261627,295.626404 325.551422,296.591156 
	C317.627380,301.061218 317.336884,308.889954 318.164032,316.482117 
	C318.788177,322.210938 317.485321,328.581879 322.000000,333.500000 
	C321.231567,345.858154 327.857635,355.875092 332.553680,366.476227 
	C334.064667,369.887146 335.295837,373.590851 338.498413,376.002106 
	C340.565674,377.558533 342.354004,377.929840 345.059998,376.624359 
	C352.047577,373.253174 359.178284,370.028992 366.535339,367.607330 
	C378.387482,363.706207 390.430542,360.658203 402.980042,359.313721 
	C414.855408,358.041473 426.729095,358.044037 438.486359,358.732697 
	C455.387024,359.722626 471.893921,363.492676 487.512970,370.470978 
	C491.948853,372.452789 496.994507,373.177643 500.500000,377.000000 
"/>
<path fill="none" opacity="1.000000" stroke="#000000" stroke-linecap="round" stroke-linejoin="round" stroke-width="6.000000"
	d="
M207.500000,441.000000 
	C199.733383,425.722534 186.127228,417.484955 170.955093,411.616089 
	C159.490021,407.181183 147.418381,404.915253 135.001236,405.525208 
	C129.116150,405.814270 123.363220,406.887787 118.001015,409.502075 
	C106.792046,414.967010 104.871445,425.396210 111.104370,435.938293 
	C115.789223,443.862000 123.803833,447.137848 132.461517,449.633514 
	C144.430695,453.083771 156.311020,452.628815 168.513779,451.676575 
	C182.384171,450.594238 195.239288,446.436829 208.000000,441.500000 
"/>
<path fill="none" opacity="1.000000" stroke="#000000" stroke-linecap="round" stroke-linejoin="round" stroke-width="6.000000"
	d="
M489.000000,390.000000 
	C473.235504,403.773682 455.233765,412.880249 434.508118,416.545959 
	C424.894135,418.246338 415.264008,419.571289 405.500275,419.472626 
	C390.173950,419.317841 375.274017,416.802399 360.995697,411.010590 
	C347.507599,405.539276 335.752594,408.840485 324.963684,417.957031 
	C317.734161,424.065796 311.227325,430.888641 304.502319,437.502380 
	C302.970917,439.008453 301.574371,440.676300 299.500000,441.500000 
"/>
<path fill="none" opacity="1.000000" stroke="#000000" stroke-linecap="round" stroke-linejoin="round" stroke-width="6.000000"
	d="
M479.000000,344.500000 
	C479.459869,340.425354 484.006317,338.296661 484.000977,333.578949 
	C480.551849,329.085266 475.704651,331.796295 472.057037,332.724182 
	C461.822296,335.327576 451.790253,335.025055 441.488953,333.578613 
	C422.610687,330.927887 404.098938,332.631317 385.981049,338.945587 
	C367.770233,345.292206 351.353760,354.281830 338.498138,368.998352 
	C337.770538,369.831268 336.906555,370.439758 335.750000,370.500000 
"/>
<path fill="none" opacity="1.000000" stroke="#000000" stroke-linecap="round" stroke-linejoin="round" stroke-width="6.000000"
	d="
M296.500000,449.000000 
	C299.212006,454.539856 298.691376,460.703430 299.275665,466.522522 
	C300.205750,475.785645 301.941864,484.894867 303.674194,493.966736 
	C305.488861,503.469666 308.160187,512.829590 311.340179,522.055115 
	C313.826752,529.268982 317.772705,535.513245 321.409393,542.050415 
	C324.628693,547.837158 326.771179,553.852173 325.699951,561.029846 
	C324.538666,568.810913 320.571228,573.006592 313.532745,575.589294 
	C307.609985,577.762573 301.905762,578.368042 295.970398,576.136292 
	C296.951355,571.294434 303.229095,570.849915 303.999878,565.999878 
	C299.925903,562.217957 297.655151,561.971802 293.538361,565.544189 
	C290.055328,568.566650 287.158173,572.246887 283.006439,574.511780 
	C273.766846,579.552246 267.256287,578.265076 259.534668,572.453918 
	C256.817566,570.409119 254.610199,567.698914 251.971283,565.534973 
	C248.871765,562.993347 245.501022,561.812744 241.995544,564.920410 
	C242.313660,570.539734 249.512497,570.505737 250.222580,576.186401 
	C244.666672,578.920532 238.622910,578.049805 233.062256,575.370789 
	C228.023773,572.943298 225.277008,568.679932 225.387466,562.497986 
	C225.539490,553.991211 228.577209,546.444641 232.039871,539.018616 
	C243.450775,514.546753 259.149567,492.802246 275.523987,471.518463 
	C280.871429,464.567749 286.541870,457.866272 291.968597,450.975281 
	C293.221252,449.384583 295.591827,449.462494 296.510345,447.504852 
	C297.786652,444.784668 299.467102,442.325867 297.863770,438.946045 
	C296.978790,437.080597 296.970001,434.656647 297.046967,432.501678 
	C297.445953,421.331421 297.313507,410.083252 298.657837,399.019165 
	C300.775085,381.593689 304.374847,364.446472 313.454468,348.973267 
	C315.540924,345.417542 317.118042,341.575653 321.000000,339.500000 
"/>
<path fill="none" opacity="1.000000" stroke="#000000" stroke-linecap="round" stroke-linejoin="round" stroke-width="6.000000"
	d="
M489.000000,388.000000 
	C473.735474,376.005219 456.582672,369.786285 436.915222,370.561523 
	C436.291840,382.296143 431.577209,391.618164 423.531616,399.532166 
	C410.119385,412.725037 388.805420,410.178497 377.511505,395.990845 
	C373.775330,391.297394 370.692291,386.304230 370.412689,380.003876 
	C370.367065,378.976318 369.166687,378.000000 368.500000,377.000000 
"/>
<path fill="none" opacity="1.000000" stroke="#000000" stroke-linecap="round" stroke-linejoin="round" stroke-width="6.000000"
	d="
M500.000000,319.000000 
	C484.588501,310.957642 472.999817,297.999939 459.546875,287.440277 
	C458.556000,286.662506 457.270264,285.955383 456.523560,286.112213 
	C450.719391,287.331451 444.795502,285.661316 438.978760,287.167969 
	C434.778473,288.255890 430.329651,287.829315 425.981079,288.338409 
	C398.450592,291.561523 371.956390,297.961273 348.045044,312.573700 
	C342.086761,316.214783 336.465179,320.468903 331.472931,325.472992 
	C328.641907,328.310669 326.184418,331.603302 322.500000,333.500000 
"/>
<path fill="none" opacity="1.000000" stroke="#000000" stroke-linecap="round" stroke-linejoin="round" stroke-width="6.000000"
	d="
M272.500000,629.500000 
	C272.292755,628.928284 272.984039,627.787781 272.000732,627.801819 
	C266.746674,627.876892 262.521057,625.051086 258.578552,622.383850 
	C249.168365,616.017456 240.262863,617.507751 230.969742,622.442993 
	C223.462173,626.429993 216.475006,631.275024 208.596954,634.721619 
	C203.157852,637.101074 197.582397,638.165527 191.983673,639.427551 
	C187.278549,640.488098 185.865219,643.293335 189.039108,646.966187 
	C194.612305,653.415588 202.041321,657.107849 210.056702,659.291870 
	C212.114670,659.852600 213.740067,661.101501 215.750000,661.500000 
"/>
<path fill="none" opacity="1.000000" stroke="#000000" stroke-linecap="round" stroke-linejoin="round" stroke-width="6.000000"
	d="
M298.000000,701.750000 
	C309.688751,699.627747 320.765411,696.254761 329.534576,687.534790 
	C334.157196,682.938049 335.755432,677.544495 333.906555,671.528687 
	C331.882843,664.944031 326.286499,662.690063 320.007233,661.463013 
	C308.137726,659.143677 296.600220,661.491089 284.988586,663.431763 
	C282.232239,663.892395 279.332947,663.472229 276.500153,663.511841 
	C275.113342,663.531189 273.222687,662.917358 273.500000,665.500000 
"/>
<path fill="none" opacity="1.000000" stroke="#000000" stroke-linecap="round" stroke-linejoin="round" stroke-width="6.000000"
	d="
M335.000000,374.000000 
	C329.849762,378.756531 327.738922,385.191772 325.594818,391.532074 
	C325.030121,393.201935 324.863678,395.668335 326.566376,396.908905 
	C328.083832,398.014496 330.118347,397.783112 332.008301,397.020569 
	C340.472870,393.605347 347.487976,387.702545 355.449127,383.405762 
	C359.451599,381.245575 362.778351,377.873749 367.494080,376.969055 
	C369.300018,376.622650 369.541046,375.071075 369.500000,373.500000 
"/>
<path fill="none" opacity="1.000000" stroke="#000000" stroke-linecap="round" stroke-linejoin="round" stroke-width="6.000000"
	d="
M473.500000,346.500000 
	C476.742767,345.260925 479.945923,344.926666 483.516815,345.361938 
	C488.813019,346.007599 494.098633,343.881012 499.502930,344.473267 
	C501.401703,344.681366 503.714874,344.020538 504.443542,346.516479 
	C505.018280,348.485291 504.066254,350.311920 502.474518,351.464813 
	C499.256592,353.795563 497.992096,359.154510 492.500000,358.000000 
"/>
<path fill="none" opacity="1.000000" stroke="#000000" stroke-linecap="round" stroke-linejoin="round" stroke-width="6.000000"
	d="
M525.750000,370.000000 
	C523.941467,376.650482 518.049438,376.610870 512.980774,377.371796 
	C509.994293,377.820129 506.488251,378.469513 504.000000,375.500000 
"/>
<path fill="none" opacity="1.000000" stroke="#000000" stroke-linecap="round" stroke-linejoin="round" stroke-width="6.000000"
	d="
M491.000000,388.000000 
	C499.028900,380.091553 506.309113,371.603912 511.227417,361.338135 
	C514.680847,362.102112 517.991394,362.427490 520.950256,363.623047 
	C523.154358,364.513672 526.027832,365.472107 525.811829,369.003784 
	C525.752930,369.967316 526.928284,369.292755 527.500000,369.500000 
"/>
<path fill="none" opacity="1.000000" stroke="#000000" stroke-linecap="round" stroke-linejoin="round" stroke-width="6.000000"
	d="
M497.500000,358.000000 
	C500.853516,361.758728 506.497589,359.154877 510.000000,362.500000 
"/>
</svg>